<svg width="87" height="76" viewBox="0 0 87 76" fill="none" xmlns="http://www.w3.org/2000/svg">
<path d="M41.863 19.5693L14.3356 45.1402V72.7386C14.3356 73.4532 14.5873 74.1385 15.0353 74.6438C15.4833 75.1491 16.0909 75.433 16.7245 75.433L33.4556 75.3841C34.0871 75.3806 34.6917 75.0951 35.1371 74.5902C35.5825 74.0853 35.8326 73.4021 35.8326 72.6898V56.5726C35.8326 55.858 36.0843 55.1727 36.5323 54.6674C36.9803 54.1622 37.5879 53.8783 38.2215 53.8783H47.777C48.4106 53.8783 49.0182 54.1622 49.4662 54.6674C49.9142 55.1727 50.1659 55.858 50.1659 56.5726V72.678C50.1649 73.0326 50.226 73.3838 50.3456 73.7117C50.4652 74.0396 50.641 74.3376 50.863 74.5887C51.0849 74.8397 51.3486 75.039 51.6389 75.1749C51.9292 75.3108 52.2405 75.3808 52.5548 75.3808L69.28 75.433C69.9136 75.433 70.5212 75.1491 70.9692 74.6438C71.4172 74.1385 71.6689 73.4532 71.6689 72.7386V45.1217L44.1474 19.5693C43.8239 19.2751 43.4208 19.1147 43.0052 19.1147C42.5896 19.1147 42.1866 19.2751 41.863 19.5693ZM85.3453 36.9494L72.8633 25.3453V2.02075C72.8633 1.48482 72.6746 0.970829 72.3386 0.591865C72.0026 0.2129 71.5469 0 71.0717 0H62.7106C62.2354 0 61.7797 0.2129 61.4437 0.591865C61.1077 0.970829 60.9189 1.48482 60.9189 2.02075V14.248L47.5516 1.84394C46.2688 0.653341 44.6591 0.00238002 42.9978 0.00238002C41.3365 0.00238002 39.7267 0.653341 38.4439 1.84394L0.650224 36.9494C0.468799 37.1186 0.318699 37.3264 0.208499 37.5609C0.0982996 37.7955 0.0301609 38.0523 0.00797613 38.3166C-0.0142086 38.5809 0.0099955 38.8475 0.0792054 39.1012C0.148415 39.355 0.261275 39.5908 0.411335 39.7953L4.21863 45.0156C4.36828 45.2209 4.55235 45.3908 4.7603 45.5157C4.96826 45.6406 5.19601 45.718 5.43053 45.7435C5.66504 45.769 5.90171 45.7421 6.12699 45.6643C6.35227 45.5865 6.56173 45.4593 6.74338 45.2901L41.863 12.6651C42.1866 12.3709 42.5896 12.2105 43.0052 12.2105C43.4208 12.2105 43.8239 12.3709 44.1474 12.6651L79.2686 45.2901C79.4499 45.4593 79.659 45.5866 79.884 45.6647C80.109 45.7428 80.3454 45.7701 80.5797 45.745C80.814 45.72 81.0417 45.6432 81.2497 45.5189C81.4576 45.3946 81.6419 45.2253 81.7918 45.0207L85.5991 39.8004C85.749 39.5947 85.8614 39.3576 85.9298 39.1028C85.9982 38.8479 86.0213 38.5803 85.9977 38.3154C85.9741 38.0505 85.9043 37.7934 85.7923 37.559C85.6804 37.3246 85.5285 37.1174 85.3453 36.9494Z" fill="black"/>
</svg>

